<?xml version="1.0" encoding="utf-8"?>
<!-- Generator: Adobe Illustrator 16.0.0, SVG Export Plug-In . SVG Version: 6.00 Build 0)  -->
<!DOCTYPE svg PUBLIC "-//W3C//DTD SVG 1.1//EN" "http://www.w3.org/Graphics/SVG/1.1/DTD/svg11.dtd">
<svg version="1.1" id="Capa_1" xmlns="http://www.w3.org/2000/svg" xmlns:xlink="http://www.w3.org/1999/xlink" x="0px" y="0px"
	 width="87.25px" height="84.25px" viewBox="-154.5 -74.5 87.25 84.25" enable-background="new -154.5 -74.5 87.25 84.25"
	 xml:space="preserve">
<circle fill="#DBC856" cx="-110.25" cy="-32.25" r="42"/>
<g>
	<g id="Layer_1_52_">
		<g>
			<path fill="#FFFFFF" d="M-118.465-34.454l1.05-0.006l0.529-0.907c0.261-0.448,0.604-0.833,1-1.15l4.441-8.252l-5.315-9.873
				c-0.499-0.927-1.604-1.343-2.589-0.976l-8.486,3.16c-0.595,0.222-1.058,0.7-1.261,1.301c-0.203,0.6-0.124,1.261,0.216,1.798
				l9.494,15.022C-119.088-34.407-118.783-34.451-118.465-34.454z"/>
			<path fill="#FFFFFF" d="M-91.404-51.158c-0.203-0.602-0.666-1.08-1.261-1.301l-8.485-3.159c-0.988-0.367-2.091,0.049-2.588,0.976
				l-9.26,17.203c0.645,0.039,1.276,0.217,1.84,0.539l0.908,0.52l0.908-0.519c0.637-0.364,1.357-0.556,2.089-0.556
				c1.494,0,2.89,0.801,3.642,2.09l0.527,0.906l1.048,0.005c0.317,0.002,0.625,0.046,0.923,0.116l9.493-15.021
				C-91.279-49.896-91.201-50.557-91.404-51.158z"/>
			<path fill="#FFFFFF" d="M-97.996-26.867l-1.945-1.134l-0.012-2.251c-0.006-1.154-0.939-2.088-2.095-2.095l-2.25-0.012
				l-1.134-1.944c-0.582-0.998-1.86-1.341-2.865-0.767l-1.953,1.116l-1.953-1.117c-1.005-0.574-2.283-0.231-2.864,0.767
				l-1.135,1.944l-2.25,0.013c-1.154,0.007-2.088,0.94-2.095,2.095l-0.012,2.251l-1.944,1.134c-0.999,0.583-1.341,1.861-0.767,2.865
				l1.116,1.953l-1.117,1.951c-0.574,1.005-0.231,2.281,0.767,2.865l1.945,1.135l0.012,2.25c0.006,1.154,0.94,2.09,2.095,2.097
				l2.25,0.012l1.134,1.944c0.582,0.998,1.86,1.34,2.865,0.768l1.953-1.117l1.953,1.117c0.33,0.188,0.689,0.277,1.043,0.277
				c0.725,0,1.43-0.375,1.82-1.045l1.136-1.945l2.251-0.012c1.154-0.006,2.088-0.939,2.094-2.096l0.012-2.25l1.944-1.135
				c0.999-0.582,1.341-1.859,0.767-2.865l-1.117-1.951l1.117-1.953C-96.654-25.006-96.998-26.285-97.996-26.867z M-102.232-23.648
				l-4.013,2.918l1.532,4.715c0.133,0.406-0.012,0.854-0.359,1.107c-0.174,0.126-0.378,0.188-0.582,0.188
				c-0.205,0-0.41-0.063-0.584-0.188l-4.012-2.916l-4.012,2.916c-0.347,0.252-0.818,0.252-1.166,0
				c-0.347-0.252-0.492-0.701-0.359-1.107l1.532-4.715l-4.012-2.918c-0.348-0.25-0.493-0.699-0.359-1.107
				c0.132-0.406,0.514-0.686,0.942-0.686h4.959l1.533-4.716c0.133-0.407,0.514-0.684,0.943-0.684s0.81,0.274,0.942,0.684
				l1.533,4.716h4.957c0.428,0,0.811,0.277,0.941,0.686C-101.741-24.35-101.887-23.898-102.232-23.648z"/>
		</g>
	</g>
</g>
</svg>
