<?xml version="1.0" encoding="utf-8"?>
<!-- Generator: Adobe Illustrator 16.0.0, SVG Export Plug-In . SVG Version: 6.00 Build 0)  -->
<!DOCTYPE svg PUBLIC "-//W3C//DTD SVG 1.1//EN" "http://www.w3.org/Graphics/SVG/1.1/DTD/svg11.dtd">
<svg version="1.1" id="Capa_1" xmlns="http://www.w3.org/2000/svg" xmlns:xlink="http://www.w3.org/1999/xlink" x="0px" y="0px"
	 width="87.25px" height="84.25px" viewBox="-154.5 -74.5 87.25 84.25" enable-background="new -154.5 -74.5 87.25 84.25"
	 xml:space="preserve">
<circle fill="#56D89D" cx="-110.446" cy="-31.985" r="42"/>
<g>
	<g>
		<circle fill="#FFFFFF" cx="-97.76" cy="-50.116" r="3.47"/>
		<path fill="#FFFFFF" d="M-88.596-43.13c0,0-4.041-3.178-4.051-3.186c-0.518-0.407-1.096-0.137-1.655-0.005
			c-0.229,0.055-0.476,0.083-0.7,0.157c-0.547,0.184-1.093,0.376-1.632,0.582c-1.013,0.386-2.121,0.788-2.989,1.456
			c-0.159,0.122-0.32,0.258-0.423,0.431c-0.149,0.086-0.285,0.202-0.393,0.351l-2.319,3.222l-3.335,1.667
			c-0.615,0.308-0.864,1.055-0.557,1.67c0.218,0.437,0.658,0.688,1.114,0.688c0.187,0,0.377-0.042,0.556-0.132l3.609-1.804
			c0.18-0.09,0.336-0.223,0.454-0.386l1.648-2.29c0.602,1.54,1.389,3.343,1.908,4.509l-4.017,0.834
			c-0.587,0.122-1.028,0.608-1.094,1.204l-1.11,10.132c-0.027,0.252,0.02,0.494,0.116,0.71h2.52
			c0.056-0.126,0.099-0.262,0.115-0.409l1.001-9.133l4.346-0.903l1.076,0.987c-0.045,0.154-0.067,0.317-0.061,0.486l0.318,8.19
			c0.011,0.277,0.097,0.546,0.25,0.778l3.483,5.291h2.986c0.125-0.416,0.078-0.881-0.18-1.272l-3.515-5.338l-0.302-7.766
			c-0.005-0.143-0.032-0.279-0.074-0.408l-0.001-0.032l-1.537-10.608l2.48,1.951l0.396,4.496c0.057,0.648,0.6,1.136,1.239,1.136
			c0.036,0,0.073-0.001,0.11-0.005c0.685-0.061,1.191-0.664,1.132-1.35l-0.443-5.033C-88.155-42.603-88.326-42.917-88.596-43.13z"/>
		<polygon fill="#FFFFFF" points="-95.563,-22.211 -105.485,-22.211 -105.485,-27.615 -115.407,-27.615 -115.407,-33.331 
			-135.25,-33.331 -135.25,-32.861 -135.25,-19.418 -135.25,-10.503 -85.642,-10.385 -85.746,-10.503 -85.642,-10.503 
			-85.642,-16.925 -95.563,-16.925 		"/>
	</g>
</g>
</svg>
