<?xml version="1.0" encoding="utf-8"?>
<!-- Generator: Adobe Illustrator 16.0.0, SVG Export Plug-In . SVG Version: 6.00 Build 0)  -->
<!DOCTYPE svg PUBLIC "-//W3C//DTD SVG 1.1//EN" "http://www.w3.org/Graphics/SVG/1.1/DTD/svg11.dtd">
<svg version="1.1" id="Capa_1" xmlns="http://www.w3.org/2000/svg" xmlns:xlink="http://www.w3.org/1999/xlink" x="0px" y="0px"
	 width="87.25px" height="84.25px" viewBox="-154.5 -74.5 87.25 84.25" enable-background="new -154.5 -74.5 87.25 84.25"
	 xml:space="preserve">
<circle fill="#D6565F" cx="-110.446" cy="-31.985" r="42"/>
<g>
	<g>
		<path fill="#FFFFFF" d="M-96.955-48.966c-4.074,0-4.638,0.563-4.638,4.638v28.669c0,4.075,0.563,4.638,4.638,4.638
			s4.638-0.563,4.638-4.638v-28.669C-92.317-48.402-92.88-48.966-96.955-48.966z M-94.853-14.641c-0.01,0.561-0.82,1.115-1.75,1.126
			c-0.232,0.004-0.471,0.004-0.702,0c-0.931-0.011-1.741-0.565-1.751-1.126c-0.006-0.318-0.006-0.67-0.006-1.018v-28.669
			c0-0.348,0-0.7,0.006-1.018c0.01-0.562,0.819-1.115,1.75-1.126c0.232-0.003,0.471-0.003,0.702,0
			c0.931,0.012,1.741,0.564,1.751,1.126c0.006,0.318,0.006,0.669,0.006,1.018v28.669C-94.847-15.311-94.847-14.959-94.853-14.641z"
			/>
		<path fill="#FFFFFF" d="M-110.446-43.063c-4.074,0-4.638,0.475-4.638,3.917v24.209c0,3.44,0.563,3.916,4.638,3.916
			s4.638-0.476,4.638-3.917v-24.208C-105.808-42.588-106.372-43.063-110.446-43.063z"/>
		<path fill="#FFFFFF" d="M-123.937-35.745c-4.075,0-4.638,0.368-4.638,3.022v18.68c0,2.654,0.563,3.022,4.638,3.022
			c4.074,0,4.638-0.368,4.638-3.022v-18.68C-119.299-35.378-119.863-35.745-123.937-35.745z"/>
	</g>
</g>
</svg>
